<?xml version="1.0"?><svg id="Capa_1" xmlns="http://www.w3.org/2000/svg" viewBox="0 0 48.02 47.6"><defs></defs><path class="cls-3" d="M24.02,8.04c8.75.03,15.82,7.11,15.76,15.83-.06,8.7-7.02,15.7-15.79,15.69-9.16-.01-15.78-7.49-15.75-15.84.04-8.65,7.14-15.71,15.78-15.68M38.81,23.76c-.02-8.18-6.67-14.76-14.92-14.74-8.18.03-14.7,6.76-14.67,14.85.03,8,6.53,14.77,14.95,14.71,8.06-.05,14.67-6.71,14.65-14.83"></path><path class="cls-1" d="M24.02,8.04c8.75.03,15.82,7.11,15.76,15.83-.06,8.7-7.02,15.7-15.79,15.69-9.16-.01-15.78-7.49-15.75-15.84.04-8.65,7.14-15.71,15.78-15.68ZM38.81,23.76c-.02-8.18-6.67-14.76-14.92-14.74-8.18.03-14.7,6.76-14.67,14.85.03,8,6.53,14.77,14.95,14.71,8.06-.05,14.67-6.71,14.65-14.83Z"></path><path class="cls-3" d="M29.37,28.93l-.18.13s-.06.04-.08.06c-.05.04-.1.07-.14.1-1.47,1.12-3.1,1.54-4.85,1.25-2.35-.39-3.95-1.71-4.77-3.93,0,0,0,0,0,0h0c.7,0,1.41,0,2.11,0h1.65c.65,0,1.33,0,2,0,.13,0,.42-.07.48-.29.07-.26.12-.52.18-.79.02-.09.04-.18.06-.28l.06-.29h-2.25c-1.5,0-3.01,0-4.51,0h0c-.27,0-.28-.01-.29-.28,0-.65,0-1.28,0-1.75,0-.15.01-.15.15-.16.18,0,.36,0,.53,0,.09,0,.17,0,.26,0h.95c1.71,0,3.47,0,5.2,0,.07,0,.43-.01.5-.26.08-.26.14-.53.21-.81.02-.09.04-.18.07-.28l.07-.3h-1.64c-1.91,0-3.82,0-5.73,0-.02,0-.04,0-.06,0,0-.02.01-.04.02-.07.58-1.5,1.68-2.7,3.11-3.36,1.43-.66,3.05-.74,4.58-.22.76.26,1.47.65,2.11,1.16l.17.14.92-.98.12-.16c.03-.11-.01-.19-.05-.24,0,0-.25-.22-.28-.24-1.7-1.33-3.68-1.9-5.88-1.69-3.1.29-5.68,2.42-6.57,5.42-.03.09-.06.19-.08.24-.04,0-.15,0-.24,0-.38,0-.76,0-1.14,0h-.76v1.64h.62c.28,0,.55,0,.82,0q.3,0,.3.29c0,.54,0,1.08,0,1.62,0,.27-.01.28-.29.28-.28,0-.56,0-.85,0h-.62v1.65h1.78c.16,0,.33,0,.36.02.03.03.08.18.12.33.52,1.65,1.49,2.99,2.89,3.97,1.34.93,2.93,1.4,4.53,1.4,1.69,0,3.38-.52,4.79-1.55.12-.09.24-.18.34-.26.04-.03.07-.05.1-.08l.21-.16-1.13-1.29Z"></path><path class="cls-2" d="M29.37,28.93l-.18.13s-.06.04-.08.06c-.05.04-.1.07-.14.1-1.47,1.12-3.1,1.54-4.85,1.25-2.35-.39-3.95-1.71-4.77-3.93,0,0,0,0,0,0h0c.7,0,1.41,0,2.11,0h1.65c.65,0,1.33,0,2,0,.13,0,.42-.07.48-.29.07-.26.12-.52.18-.79.02-.09.04-.18.06-.28l.06-.29h-2.25c-1.5,0-3.01,0-4.51,0h0c-.27,0-.28-.01-.29-.28,0-.65,0-1.28,0-1.75,0-.15.01-.15.15-.16.18,0,.36,0,.53,0,.09,0,.17,0,.26,0h.95c1.71,0,3.47,0,5.2,0,.07,0,.43-.01.5-.26.08-.26.14-.53.21-.81.02-.09.04-.18.07-.28l.07-.3h-1.64c-1.91,0-3.82,0-5.73,0-.02,0-.04,0-.06,0,0-.02.01-.04.02-.07.58-1.5,1.68-2.7,3.11-3.36,1.43-.66,3.05-.74,4.58-.22.76.26,1.47.65,2.11,1.16l.17.14.92-.98.12-.16c.03-.11-.01-.19-.05-.24,0,0-.25-.22-.28-.24-1.7-1.33-3.68-1.9-5.88-1.69-3.1.29-5.68,2.42-6.57,5.42-.03.09-.06.19-.08.24-.04,0-.15,0-.24,0-.38,0-.76,0-1.14,0h-.76v1.64h.62c.28,0,.55,0,.82,0q.3,0,.3.29c0,.54,0,1.08,0,1.62,0,.27-.01.28-.29.28-.28,0-.56,0-.85,0h-.62v1.65h1.78c.16,0,.33,0,.36.02.03.03.08.18.12.33.52,1.65,1.49,2.99,2.89,3.97,1.34.93,2.93,1.4,4.53,1.4,1.69,0,3.38-.52,4.79-1.55.12-.09.24-.18.34-.26.04-.03.07-.05.1-.08l.21-.16-1.13-1.29Z"></path></svg>