<?xml version="1.0"?><svg id="Capa_1" xmlns="http://www.w3.org/2000/svg" viewBox="0 0 48.02 47.6"><defs></defs><path class="cls-2" d="M36.42,23.86c0,5.72,0,11.44,0,17.17,0,1.36-.51,2.46-1.58,3.3-.69.54-1.48.81-2.35.81-5.66,0-11.31,0-16.97,0-2.21,0-3.93-1.79-3.93-4.06,0-8.62,0-17.25,0-25.87,0-2.89,0-5.78,0-8.67.01-2.35,1.76-4.07,4.1-4.07,5.53,0,11.07,0,16.6,0,2.35,0,4.1,1.71,4.11,4.06.02,5.78,0,11.56,0,17.33h0ZM35.6,23.87h0c0-5.73,0-11.47,0-17.2,0-.67-.11-1.31-.49-1.87-.64-.97-1.53-1.48-2.7-1.48-2.57,0-5.13,0-7.7,0-3.02,0-6.04,0-9.07,0-1.06,0-1.91.42-2.56,1.25-.52.65-.65,1.42-.65,2.22,0,9.8,0,19.6,0,29.4,0,1.66-.02,3.31,0,4.97.03,1.81,1.36,3.14,3.12,3.14,5.61,0,11.22,0,16.83,0,.4,0,.83-.07,1.2-.21,1.28-.47,2.01-1.6,2.01-3.04,0-5.72,0-11.44,0-17.17"></path><path class="cls-1" d="M36.42,23.86c0,5.72,0,11.44,0,17.17,0,1.36-.51,2.46-1.58,3.3-.69.54-1.48.81-2.35.81-5.66,0-11.31,0-16.97,0-2.21,0-3.93-1.79-3.93-4.06,0-8.62,0-17.25,0-25.87,0-2.89,0-5.78,0-8.67.01-2.35,1.76-4.07,4.1-4.07,5.53,0,11.07,0,16.6,0,2.35,0,4.1,1.71,4.11,4.06.02,5.78,0,11.56,0,17.33h0ZM35.6,23.87h0c0-5.73,0-11.47,0-17.2,0-.67-.11-1.31-.49-1.87-.64-.97-1.53-1.48-2.7-1.48-2.57,0-5.13,0-7.7,0-3.02,0-6.04,0-9.07,0-1.06,0-1.91.42-2.56,1.25-.52.65-.65,1.42-.65,2.22,0,9.8,0,19.6,0,29.4,0,1.66-.02,3.31,0,4.97.03,1.81,1.36,3.14,3.12,3.14,5.61,0,11.22,0,16.83,0,.4,0,.83-.07,1.2-.21,1.28-.47,2.01-1.6,2.01-3.04,0-5.72,0-11.44,0-17.17Z"></path><path class="cls-2" d="M33.81,23.86v13.93c0,.13,0,.26,0,.39-.01.28-.15.44-.43.44-.35,0-.71,0-1.06,0-5.86,0-11.73,0-17.59,0-.86,0-.87-.01-.87-.9,0-9.35,0-18.7,0-28.04,0-.54.13-.68.66-.68h18.65c.53,0,.65.13.65.69,0,4.73,0,9.46,0,14.18M32.99,9.81H14.67v27.99h18.32V9.81Z"></path><path class="cls-1" d="M33.81,23.86v13.93c0,.13,0,.26,0,.39-.01.28-.15.44-.43.44-.35,0-.71,0-1.06,0-5.86,0-11.73,0-17.59,0-.86,0-.87-.01-.87-.9,0-9.35,0-18.7,0-28.04,0-.54.13-.68.66-.68h18.65c.53,0,.65.13.65.69,0,4.73,0,9.46,0,14.18ZM32.99,9.81H14.67v27.99h18.32V9.81Z"></path><path class="cls-2" d="M25.63,41.46c0,.94-.72,1.67-1.66,1.67-.85,0-1.58-.74-1.59-1.6,0-.92.7-1.67,1.59-1.68.91,0,1.65.71,1.66,1.61M24.99,41.5c0-.54-.44-1-.98-1.01-.51-.01-.98.45-.99.97-.01.52.46,1.03.97,1.03.52,0,1-.47,1-1"></path><path class="cls-1" d="M25.63,41.46c0,.94-.72,1.67-1.66,1.67-.85,0-1.58-.74-1.59-1.6,0-.92.7-1.67,1.59-1.68.91,0,1.65.71,1.66,1.61ZM24.99,41.5c0-.54-.44-1-.98-1.01-.51-.01-.98.45-.99.97-.01.52.46,1.03.97,1.03.52,0,1-.47,1-1Z"></path><path class="cls-2" d="M23.46,23.32h6.53c.09,0,.21-.03.27.01.12.1.29.23.3.36,0,.13-.14.28-.26.39-.06.05-.2.03-.3.03-4.37,0-8.73,0-13.1,0-.11,0-.23,0-.33-.03-.2-.06-.31-.2-.29-.41.02-.22.16-.32.37-.34.08,0,.17,0,.25,0h6.57"></path><path class="cls-1" d="M23.46,23.32h6.53c.09,0,.21-.03.27.01.12.1.29.23.3.36,0,.13-.14.28-.26.39-.06.05-.2.03-.3.03-4.37,0-8.73,0-13.1,0-.11,0-.23,0-.33-.03-.2-.06-.31-.2-.29-.41.02-.22.16-.32.37-.34.08,0,.17,0,.25,0h6.57Z"></path><path class="cls-2" d="M23.46,17.47h6.5c.1,0,.23-.04.3.01.12.09.29.24.3.36,0,.12-.16.27-.28.37-.06.05-.2.03-.3.03-4.38,0-8.75,0-13.13,0-.08,0-.17,0-.24-.02-.22-.05-.35-.18-.33-.41.02-.21.16-.33.37-.34.07,0,.14,0,.21,0h6.6"></path><path class="cls-1" d="M23.46,17.47h6.5c.1,0,.23-.04.3.01.12.09.29.24.3.36,0,.12-.16.27-.28.37-.06.05-.2.03-.3.03-4.38,0-8.75,0-13.13,0-.08,0-.17,0-.24-.02-.22-.05-.35-.18-.33-.41.02-.21.16-.33.37-.34.07,0,.14,0,.21,0h6.6Z"></path><path class="cls-2" d="M23.42,30.42h-6.53c-.1,0-.21,0-.31-.01-.21-.04-.32-.18-.31-.4.01-.21.13-.34.35-.35.06,0,.12,0,.18,0h13.21c.07,0,.17-.03.21,0,.12.1.29.2.33.33.07.2-.07.35-.28.41-.1.02-.2.02-.31.02-2.19,0-4.37,0-6.56,0"></path><path class="cls-1" d="M23.42,30.42h-6.53c-.1,0-.21,0-.31-.01-.21-.04-.32-.18-.31-.4.01-.21.13-.34.35-.35.06,0,.12,0,.18,0h13.21c.07,0,.17-.03.21,0,.12.1.29.2.33.33.07.2-.07.35-.28.41-.1.02-.2.02-.31.02-2.19,0-4.37,0-6.56,0Z"></path><path class="cls-2" d="M21.11,27.51c-1.42,0-2.83,0-4.25,0-.09,0-.19,0-.28-.01-.2-.05-.32-.18-.31-.4.01-.22.14-.33.35-.37.05,0,.1,0,.15,0h8.68c.34,0,.51.13.51.4s-.16.39-.51.39c-1.45,0-2.89,0-4.34,0"></path><path class="cls-1" d="M21.11,27.51c-1.42,0-2.83,0-4.25,0-.09,0-.19,0-.28-.01-.2-.05-.32-.18-.31-.4.01-.22.14-.33.35-.37.05,0,.1,0,.15,0h8.68c.34,0,.51.13.51.4s-.16.39-.51.39c-1.45,0-2.89,0-4.34,0Z"></path><path class="cls-2" d="M21.12,21.18h-4.22c-.1,0-.21,0-.31-.01-.21-.04-.33-.18-.32-.39,0-.21.13-.34.35-.36.08,0,.17,0,.25,0h8.41c.07,0,.14,0,.21,0,.3.01.46.14.46.38,0,.24-.16.38-.45.38-1.06,0-2.12,0-3.17,0h-1.2Z"></path><path class="cls-1" d="M21.12,21.18h-4.22c-.1,0-.21,0-.31-.01-.21-.04-.33-.18-.32-.39,0-.21.13-.34.35-.36.08,0,.17,0,.25,0h8.41c.07,0,.14,0,.21,0,.3.01.46.14.46.38,0,.24-.16.38-.45.38-1.06,0-2.12,0-3.17,0h-1.2Z"></path></svg>