<?xml version="1.0"?><svg id="Capa_1" xmlns="http://www.w3.org/2000/svg" viewBox="0 0 48.02 47.6"><defs></defs><path class="cls-1" d="M24.01,17.21c1.58-1.55,3.19-3.12,4.79-4.7,1.01-1,2-2.02,3.02-2.99,1.35-1.29,3.21-1.17,4.36.24.81,1,.83,2.45.03,3.46-.18.22-.38.43-.58.64-1.54,1.55-3.08,3.1-4.62,4.65-.08.08-.15.17-.29.32h.45c2.85,0,5.7-.01,8.54,0,1.39,0,2.43.96,2.55,2.36.04.44.05.9.02,1.34-.08,1.22-1.05,2.22-2.32,2.34-.35.03-.46.17-.54.48-.76,2.94-1.53,5.88-2.29,8.81-.17.66-.34,1.32-.51,1.98-.41,1.64-1.84,2.81-3.55,2.83-2.29.03-4.59,0-6.88.01-3.63,0-7.25,0-10.88,0-2.1,0-3.47-1.08-3.99-3.11-.91-3.55-1.84-7.09-2.75-10.64-.06-.22-.15-.32-.4-.35-1.43-.13-2.38-1.12-2.43-2.56-.02-.5-.03-1.01.06-1.5.22-1.22,1.26-2,2.63-2,2.65,0,5.29,0,7.94,0h.94c-.17-.19-.28-.31-.39-.43-1.56-1.56-3.12-3.13-4.68-4.69-.84-.84-1.19-1.84-.87-3,.56-2.01,3.04-2.75,4.64-1.37.74.64,1.41,1.37,2.11,2.05,1.98,1.96,3.96,3.91,5.9,5.83M9.96,24.87c.11.47.21.9.32,1.32.82,3.13,1.67,6.26,2.44,9.4.33,1.36,1.44,1.97,2.52,1.96,2.58-.03,5.16,0,7.75,0,3.29,0,6.57-.01,9.86,0,1.04,0,2.14-.73,2.41-1.82.76-3.06,1.59-6.1,2.39-9.15.15-.55.28-1.11.42-1.7h-.32c-2.56,0-5.12,0-7.68,0-.14,0-.28,0-.41-.04-.35-.12-.53-.45-.47-.81.06-.38.3-.57.76-.57,2.71,0,5.42,0,8.13,0,.58,0,1.15.01,1.73,0,.62-.02,1.03-.43,1.06-1.05.02-.32,0-.64,0-.96-.01-.81-.42-1.21-1.24-1.21-3.38,0-6.76,0-10.15.01-.14,0-.3.08-.4.18-.35.33-.69.67-1.02,1.02-.09.1-.19.23-.2.35-.25,2.22-2.44,3.79-4.63,3.31-1.61-.36-2.75-1.58-3.01-3.22-.02-.13-.03-.3-.11-.38-.38-.39-.78-.75-1.18-1.11-.09-.08-.23-.16-.35-.16-3.39,0-6.79,0-10.18,0-.11,0-.21,0-.32.02-.53.08-.89.46-.91,1-.02.39,0,.79,0,1.18.01.55.33.92.88,1.01.15.02.3.02.45.02,3.15,0,6.29,0,9.44,0,.18,0,.37,0,.53.07.32.12.48.47.41.81-.07.33-.37.55-.76.55-2.12,0-4.25,0-6.37,0-.58,0-1.15,0-1.78,0M22.47,17.79c-.08-.09-.13-.15-.18-.2-1.8-1.8-3.6-3.61-5.4-5.41-.6-.6-1.2-1.22-1.83-1.79-.46-.42-1.03-.45-1.58-.19-.54.25-.8.7-.83,1.3-.02.54.28.89.63,1.24,2.3,2.3,4.6,4.6,6.9,6.9.07.07.15.13.24.22.43-.96,1.1-1.63,2.05-2.07M25.57,17.82c.96.42,1.59,1.13,2.05,2.04.09-.08.16-.14.23-.21,1.99-1.99,3.97-3.99,5.96-5.98.43-.43.88-.85,1.26-1.32.61-.76.28-1.85-.62-2.18-.63-.24-1.19-.09-1.67.39-2.31,2.32-4.62,4.63-6.93,6.95-.09.09-.17.19-.27.31M26.45,21.32c0-1.35-1.09-2.45-2.46-2.46-1.32-.01-2.41,1.07-2.42,2.39-.01,1.38,1.05,2.51,2.35,2.53,1.41.02,2.52-1.06,2.53-2.46"></path><path class="cls-1" d="M33.05,26.98c.47,0,.8.37.7.85-.42,1.96-.84,3.91-1.26,5.87-.1.48-.19.96-.3,1.44-.09.42-.43.64-.83.55-.37-.08-.62-.46-.54-.85.51-2.41,1.03-4.83,1.55-7.24.09-.41.32-.61.67-.61"></path><path class="cls-1" d="M14.92,26.97c.38,0,.61.2.72.67.27,1.24.54,2.47.8,3.71.24,1.15.49,2.29.72,3.44.09.44-.13.81-.51.89-.41.09-.73-.14-.84-.62-.52-2.38-1.03-4.76-1.54-7.15-.11-.54.17-.94.65-.95"></path><path class="cls-1" d="M24.71,31.33v3.55c0,.51-.25.82-.68.82-.42,0-.71-.31-.71-.81,0-2.38,0-4.75,0-7.13,0-.5.29-.81.72-.79.41.01.67.32.67.81,0,1.18,0,2.37,0,3.55h0Z"></path><path class="cls-1" d="M27.08,34.68c.15-1.4.31-2.93.47-4.47.08-.78.16-1.57.24-2.35.01-.11.02-.21.04-.32.08-.39.35-.6.72-.57.36.03.65.34.63.71-.03.5-.09,1-.14,1.49-.18,1.91-.37,3.82-.55,5.73-.05.51-.34.81-.77.78-.4-.03-.66-.37-.64-1.01"></path><path class="cls-1" d="M18.86,27.88c-.04-.45.07-.69.37-.84.44-.22.93.06.99.6.11.99.21,1.99.32,2.99.14,1.39.27,2.78.42,4.17.05.5-.17.87-.58.91-.44.04-.74-.24-.79-.76-.24-2.35-.48-4.71-.72-7.06"></path><path class="cls-1" d="M22.96,21.31c0-.6.46-1.05,1.06-1.04.57,0,1.04.47,1.04,1.03,0,.58-.47,1.06-1.05,1.06s-1.06-.46-1.05-1.05"></path></svg>