<?xml version="1.0"?><svg xmlns="http://www.w3.org/2000/svg" xmlns:xlink="http://www.w3.org/1999/xlink" viewBox="0 0 544.78 164.89"><defs><clipPath id="clippath"><rect class="cls-1" x="7.55" y="-221.53" width="239.57" height="229.84"></rect></clipPath><clipPath id="clippath-1"><rect class="cls-1" x="64.35" y="21.66" width="445.44" height="68.4"></rect></clipPath><clipPath id="clippath-2"><rect class="cls-1" x="64.36" y="21.66" width="445.44" height="68.4"></rect></clipPath><clipPath id="clippath-3"><rect class="cls-1" x="25.55" y="39.22" width="95.1" height="54.91"></rect></clipPath><clipPath id="clippath-4"><rect class="cls-1" x="25.55" y="39.22" width="95.1" height="54.91"></rect></clipPath><clipPath id="clippath-5"><rect class="cls-1" x="429.89" y="91.64" width="89.34" height="51.59"></rect></clipPath><clipPath id="clippath-6"><rect class="cls-1" x="429.89" y="91.64" width="89.34" height="51.59"></rect></clipPath></defs><g class="cls-4"><g id="Capa_1"><g class="cls-25"><image width="999" height="958" transform="translate(7.55 -221.53) scale(.24)"></image></g><g class="cls-2"><g class="cls-5"><g class="cls-8"><image width="1856" height="285" transform="translate(64.36 21.66) scale(.24)"></image></g></g></g><text class="cls-12" transform="translate(75.92 53.71)"><tspan class="cls-16" x="0" y="0">L</tspan><tspan class="cls-20" x="15.6" y="0">A</tspan><tspan class="cls-21" x="34.45" y="0"> </tspan><tspan class="cls-18" x="41.16" y="0">LIM</tspan><tspan class="cls-17" x="90.36" y="0">P</tspan><tspan class="cls-18" x="107.12" y="0">I</tspan><tspan class="cls-22" x="116.86" y="0">E</tspan><tspan class="cls-20" x="133.59" y="0">ZA D</tspan><tspan class="cls-22" x="195.57" y="0">E</tspan><tspan class="cls-19" x="212.3" y="0"> </tspan><tspan class="cls-24" x="219.04" y="0">T</tspan><tspan class="cls-18" x="233.58" y="0">O</tspan><tspan class="cls-23" x="255.9" y="0">D</tspan><tspan class="cls-18" x="276.55" y="0">A </tspan><tspan class="cls-16" x="302.14" y="0">L</tspan><tspan class="cls-20" x="317.74" y="0">A VI</tspan><tspan class="cls-23" x="371.91" y="0">D</tspan><tspan x="392.56" y="0">A</tspan></text><path class="cls-13" d="M497.18,117.27H63.49c-3.12,0-5.66-2.53-5.66-5.66v-38.91c0-3.12,2.53-5.66,5.66-5.66h433.69c3.12,0,5.66,2.53,5.66,5.66v38.91c0,3.12-2.53,5.66-5.66,5.66"></path><text class="cls-3" transform="translate(72.14 106.88)"><tspan x="0" y="0">AHO</tspan><tspan class="cls-26" x="76.95" y="0">R</tspan><tspan class="cls-11" x="101.65" y="0">A CUE</tspan><tspan class="cls-15" x="209.2" y="0">S</tspan><tspan class="cls-14" x="232.87" y="0">T</tspan><tspan class="cls-11" x="253.72" y="0">A MENOS</tspan></text><g class="cls-6"><g class="cls-7"><image width="397" height="229" transform="translate(120.65 94.13) rotate(-180) scale(.24)"></image></g></g><g class="cls-10"><g class="cls-9"><image width="373" height="215" transform="translate(519.23 143.23) rotate(-180) scale(.24)"></image></g></g></g></g></svg>