<?xml version="1.0"?>
<svg id="Capa_1" xmlns="http://www.w3.org/2000/svg" xmlns:xlink="http://www.w3.org/1999/xlink" version="1.1" viewBox="0 0 452 95.6">
  
  <defs>
    
    <clipPath id="clippath">
      <rect class="st0" x="6.5" width="445.4" height="68.4"></rect>
    </clipPath>
    <clipPath id="clippath-1">
      <rect class="st0" x="6.5" width="445.4" height="68.4"></rect>
    </clipPath>
  </defs>
  <g class="st3">
    <g id="Capa_11" data-name="Capa_1">
      <g class="st9">
        <g class="st12">
          <g class="st10">
            <image id="sombra.psd" class="st3" width="1853" height="283" transform="translate(6.5 .2) scale(.2)" xlink:href="sombra.png"></image>
          </g>
        </g>
      </g>
      <g class="st3">
        <text class="st5" transform="translate(18.1 32)"><tspan x="0" y="0">L</tspan></text>
        <text class="st6" transform="translate(33.7 32)"><tspan x="0" y="0">A</tspan></text>
        <text class="st7" transform="translate(52.5 32)"><tspan x="0" y="0"> </tspan></text>
        <text class="st8" transform="translate(59.3 32)"><tspan x="0" y="0">LIM</tspan></text>
        <text class="st8" transform="translate(108.5 32)"><tspan x="0" y="0">P</tspan></text>
        <text class="st7" transform="translate(125.2 32)"><tspan x="0" y="0">I</tspan></text>
        <text class="st8" transform="translate(135 32)"><tspan x="0" y="0">E</tspan></text>
        <text class="st6" transform="translate(151.7 32)"><tspan x="0" y="0">ZA D</tspan></text>
        <text class="st8" transform="translate(213.7 32)"><tspan x="0" y="0">E</tspan></text>
        <text class="st7" transform="translate(230.4 32)"><tspan x="0" y="0"> </tspan></text>
        <text class="st7" transform="translate(237.1 32)"><tspan x="0" y="0">T</tspan></text>
        <text class="st7" transform="translate(251.7 32)"><tspan x="0" y="0">O</tspan></text>
        <text class="st8" transform="translate(274 32)"><tspan x="0" y="0">D</tspan></text>
        <text class="st8" transform="translate(294.6 32)"><tspan x="0" y="0">A </tspan></text>
        <text class="st5" transform="translate(320.2 32)"><tspan x="0" y="0">L</tspan></text>
        <text class="st6" transform="translate(335.8 32)"><tspan x="0" y="0">A VI</tspan></text>
        <text class="st8" transform="translate(390 32)"><tspan x="0" y="0">D</tspan></text>
        <text class="st1" transform="translate(410.6 32)"><tspan x="0" y="0">A</tspan></text>
      </g>
      <path class="st11" d="M439.3,95.6H5.7c-3.1,0-5.7-2.5-5.7-5.7v-38.9c0-3.1,2.5-5.7,5.7-5.7h433.7c3.1,0,5.7,2.5,5.7,5.7v38.9c0,3.1-2.5,5.7-5.7,5.7"></path>
      <g class="st3">
        <text class="st2" transform="translate(14.3 85.2)"><tspan x="0" y="0">AHO</tspan></text>
        <text class="st2" transform="translate(91.3 85.2)"><tspan x="0" y="0">R</tspan></text>
        <text class="st2" transform="translate(116 85.2)"><tspan x="0" y="0">A CUE</tspan></text>
        <text class="st2" transform="translate(223.5 85.2)"><tspan x="0" y="0">S</tspan></text>
        <text class="st4" transform="translate(247.2 85.2)"><tspan x="0" y="0">T</tspan></text>
        <text class="st2" transform="translate(268 85.2)"><tspan x="0" y="0">A MENOS</tspan></text>
      </g>
    </g>
  </g>
</svg>